PathFileType	4	(X/Y/Z)	D:\TRACE\spotREDO_2-26-24\spot_Both_Motion_1_8-v60.trc
DataRate	CameraRate	NumFrames	NumMarkers	Units	OrigDataRate	OrigDataStartFrame	OrigNumFrames
100.00	100.00	      31	9	mm	100.00	1	      7000
Frame#	Time	front left toe			Front right toe			aft left toe			aft right toe			Arm			FL body			FR body			AL Body			AR Body			
		X1	Y1	Z1	X2	Y2	Z2	X3	Y3	Z3	X4	Y4	Z4	X5	Y5	Z5	X6	Y6	Z6	X7	Y7	Z7	X8	Y8	Z8	X9	Y9	Z9	

1	0.000	-235.42140	21.53006	-227.70001	281.12848	21.54029	-198.91214	-262.74326	22.25316	369.88300	246.08044	27.72220	399.69397	43.95300	1017.31683	-489.24518	-49.41947	641.06305	-312.83002	107.17911	645.70911	-305.95364	-92.43568	602.30768	569.42352	48.67020	607.30353	577.31348	
2	0.010	-235.41045	21.48635	-227.71521	281.10193	21.56182	-198.97090	-262.68738	22.21442	369.88263	246.05334	27.69133	399.68295	44.09863	1017.92896	-489.66232	-49.39309	641.07721	-312.80957	107.10547	645.72772	-305.93747	-92.42586	602.29877	569.51074	48.71921	607.29388	577.37244	
3	0.020	-235.32530	21.45900	-227.69832	281.20395	21.53797	-198.95334	-262.65106	22.18238	369.88159	246.14108	27.75768	399.69742	44.19883	1018.78522	-490.03848	-49.42718	641.07642	-312.77515	107.14919	645.71411	-305.88434	-92.37459	602.27264	569.56244	48.76374	607.27612	577.38666	
4	0.030	-235.41350	21.55526	-227.69499	281.12881	21.56135	-198.95654	-262.71396	22.25212	369.87692	246.03287	27.72919	399.68021	44.17342	1019.48395	-490.34299	-49.38321	641.08099	-312.71869	107.09451	645.73395	-305.84912	-92.41991	602.29449	569.61847	48.75578	607.28223	577.43494	
5	0.040	-235.42575	21.56341	-227.69083	281.15631	21.55310	-198.92664	-262.71393	22.24519	369.86542	246.06398	27.73691	399.72577	44.18602	1019.98608	-490.60800	-49.40667	641.08453	-312.69299	107.07545	645.69019	-305.77536	-92.41403	602.28284	569.62988	48.79179	607.27252	577.45276	
6	0.050	-235.39227	21.57361	-227.69273	281.14734	21.58745	-198.90227	-262.75705	22.25950	369.87967	246.06990	27.72199	399.70169	44.22449	1020.96417	-491.12683	-49.42888	641.09509	-312.65634	107.03885	645.68018	-305.71872	-92.47357	602.33240	569.66162	48.78151	607.26672	577.47656	
7	0.060	-235.41864	21.54243	-227.67612	281.11636	21.57469	-198.94354	-262.71765	22.26866	369.87585	246.08905	27.72627	399.70218	44.02439	1021.63739	-491.70691	-49.41342	641.04565	-312.62491	107.02178	645.63080	-305.66800	-92.47351	602.32098	569.66888	48.76535	607.27185	577.47577	
8	0.070	-235.42088	21.51566	-227.69882	281.07901	21.54503	-198.98262	-262.72629	22.24151	369.86984	246.08366	27.73138	399.71567	44.03975	1022.19080	-492.11182	-49.42688	641.03076	-312.52734	106.99119	645.60999	-305.61530	-92.48878	602.31879	569.71973	48.78807	607.26483	577.50281	
9	0.080	-235.39421	21.54334	-227.69107	281.16293	21.55788	-198.92850	-262.72986	22.28059	369.88223	246.08978	27.70349	399.68188	44.14594	1023.07751	-492.56497	-49.44779	641.03137	-312.53168	106.96856	645.64630	-305.57092	-92.48956	602.30682	569.74811	48.79809	607.25677	577.51978	
10	0.090	-235.41878	21.57064	-227.67737	281.09445	21.61371	-198.90558	-262.71527	22.21144	369.85880	246.07944	27.70638	399.68250	44.14918	1023.66473	-492.84439	-49.40436	641.00452	-312.52536	106.92941	645.61383	-305.51575	-92.50787	602.33917	569.77972	48.81181	607.24738	577.52789	
11	0.100	-235.43594	21.53052	-227.68697	281.09741	21.58476	-198.94382	-262.76935	22.29820	369.90012	246.10141	27.70655	399.70798	44.11977	1024.36731	-493.15353	-49.39130	641.05933	-312.43951	106.90918	645.61383	-305.49960	-92.53354	602.31122	569.81342	48.79715	607.24176	577.57971	
12	0.110	-235.41710	21.53838	-227.64584	281.09854	21.60028	-198.94035	-262.74155	22.27907	369.87762	246.09525	27.68719	399.69080	44.24429	1025.16199	-493.63971	-49.39614	641.00824	-312.40472	106.89387	645.62506	-305.45856	-92.52857	602.30048	569.83740	48.87430	607.23108	577.66040	
13	0.120	-235.40457	21.53440	-227.66571	281.10736	21.52260	-198.96873	-262.72495	22.25684	369.87930	246.07317	27.72609	399.69641	44.11546	1025.89246	-494.02661	-49.36011	640.98914	-312.28726	106.83479	645.62561	-305.43881	-92.54137	602.31915	569.86755	48.87494	607.21808	577.70135	
14	0.130	-235.39253	21.53037	-227.66190	281.15054	21.60786	-198.91046	-262.74216	22.23852	369.86740	246.07721	27.75700	399.68631	44.14907	1026.62024	-494.44479	-49.34957	640.99774	-312.26633	106.82286	645.61713	-305.39709	-92.54117	602.30396	569.90936	48.90169	607.23724	577.77911	
15	0.140	-235.41512	21.54797	-227.66245	281.16144	21.54777	-198.90387	-262.73822	22.26035	369.86404	246.07614	27.75344	399.73547	44.18031	1027.25903	-494.75125	-49.35081	640.94507	-312.17917	106.82157	645.60156	-305.34171	-92.56516	602.30853	569.95074	48.93541	607.23950	577.84644	
16	0.150	-235.43149	21.53505	-227.69083	281.14670	21.57049	-198.90785	-262.72598	22.26500	369.88461	246.10867	27.74726	399.74124	44.22988	1027.84790	-494.99564	-49.41511	640.95758	-312.15244	106.78330	645.61737	-305.26218	-92.52053	602.28778	570.02301	48.96535	607.24103	577.94006	
17	0.160	-235.44341	21.52057	-227.68410	281.11096	21.49347	-198.92126	-262.74872	22.25721	369.90607	246.05235	27.73765	399.74011	44.23130	1028.67627	-495.39423	-49.33604	640.95636	-312.09973	106.73586	645.60223	-305.24997	-92.53915	602.30414	570.05634	48.91361	607.22552	578.04034	
18	0.170	-235.45024	21.53812	-227.64583	281.13843	21.60767	-198.91100	-262.73367	22.26159	369.90289	246.08482	27.69915	399.71140	44.18187	1029.23047	-496.04227	-49.34299	640.93732	-312.06085	106.72610	645.57727	-305.20178	-92.53753	602.26294	570.08643	48.94653	607.20404	578.08435	
19	0.180	-235.40001	21.49249	-227.67290	281.15778	21.54558	-198.84872	-262.73969	22.24541	369.88660	246.02614	27.73164	399.72488	44.16021	1029.91821	-496.38464	-49.35559	640.89056	-311.99191	106.69048	645.60974	-305.15988	-92.56306	602.27319	570.12158	49.06883	607.08093	578.09662	
20	0.190	-235.41484	21.51961	-227.65511	281.13861	21.58884	-198.88593	-262.76556	22.26123	369.91147	246.07486	27.73030	399.70789	44.24434	1030.60034	-496.71591	-49.32893	640.83136	-311.92056	106.69045	645.62067	-305.11929	-92.53777	602.26288	570.15009	48.95264	607.19519	578.28937	
21	0.200	-235.43187	21.54872	-227.65524	281.24487	21.56630	-198.79616	-262.79669	22.29427	369.89297	246.05013	27.74966	399.74136	44.35775	1031.33069	-497.04437	-49.30496	640.85449	-311.90427	106.62093	645.61615	-305.07822	-92.58654	602.32422	570.20752	48.82779	607.19116	578.41150	
22	0.210	-235.44958	21.52431	-227.62738	281.15674	21.59957	-198.86841	-262.76599	22.25467	369.88324	246.03673	27.70441	399.71475	44.40715	1031.80212	-497.24203	-49.30560	640.92395	-311.87039	106.60646	645.60968	-305.06052	-92.56133	602.27338	570.24036	48.97806	607.11823	578.46741	
23	0.220	-235.46208	21.53174	-227.62645	281.14124	21.56814	-198.89940	-262.75861	22.27084	369.90970	246.07666	27.73633	399.74063	44.27164	1032.65417	-497.94104	-49.32339	640.82947	-311.84851	106.55926	645.59454	-304.98016	-92.59722	602.28284	570.29108	48.73645	607.18451	578.56958	
24	0.230	-235.43098	21.53165	-227.60977	281.14160	21.51841	-198.92130	-262.75217	22.23249	369.90463	246.05907	27.70184	399.72861	44.06911	1033.16162	-498.49786	-49.32305	640.81329	-311.75540	106.57214	645.59283	-304.94431	-92.52143	602.24817	570.35876	48.74713	607.13953	578.68188	
25	0.240	-235.46394	21.51987	-227.63725	281.15054	21.58130	-198.88670	-262.72177	22.27737	369.89963	246.04733	27.67904	399.71744	44.01957	1033.81836	-498.94745	-49.37782	640.85461	-311.75925	106.54913	645.58289	-304.87564	-92.51373	602.27777	570.42651	48.73887	607.15253	578.74353	
26	0.250	-235.40863	21.53963	-227.62190	281.19974	21.56456	-198.88522	-262.77731	22.35078	369.91275	246.07573	27.72507	399.78192	44.26736	1034.53906	-499.05432	-49.41652	640.88684	-311.64746	106.57946	645.57892	-304.82193	-92.46440	602.25787	570.47394	48.80560	607.16479	578.76746	
27	0.260	-235.45688	21.55874	-227.61998	281.16473	21.57558	-198.91853	-262.73547	22.28282	369.88910	246.06117	27.72124	399.74887	44.23590	1035.14697	-499.43292	-49.49219	640.89838	-311.60358	106.53291	645.56171	-304.79422	-92.41263	602.24829	570.56018	48.74458	607.17670	578.80017	
28	0.270	-235.44070	21.52170	-227.60712	281.12512	21.56835	-198.92494	-262.79532	22.33687	369.90408	246.06419	27.71263	399.76053	44.15310	1035.74158	-499.98108	-49.42062	640.87140	-311.44824	106.50816	645.56842	-304.74921	-92.37853	602.25970	570.60699	48.77866	607.18243	578.84894	
29	0.280	-235.46240	21.52694	-227.59912	281.13275	21.55890	-198.87827	-262.76678	22.32382	369.91608	246.08826	27.71724	399.74475	44.13014	1036.70447	-500.61847	-49.51814	640.85156	-311.42639	106.52633	645.54059	-304.70801	-92.34083	602.23285	570.66620	48.70133	607.17694	578.89880	
30	0.290	-235.48387	21.52474	-227.59441	281.16742	21.55283	-198.88591	-262.75403	22.32727	369.90662	246.06206	27.74030	399.74997	44.22047	1037.21216	-500.88187	-49.53392	640.84070	-311.33420	106.52267	645.53296	-304.66272	-92.27724	602.26361	570.74335	48.75560	607.16785	578.86499	
31	0.300	-235.48515	21.55951	-227.58257	281.07700	21.63323	-198.90753	-262.77023	22.30191	369.89334	246.07367	27.70490	399.75821	44.22844	1037.90381	-501.17612	-49.59541	640.87390	-311.28622	106.50510	645.55115	-304.63861	-92.22923	602.28186	570.81561	48.75174	607.21796	578.92749	
